<svg xmlns="http://www.w3.org/2000/svg" viewBox="0 0 469.74 404.95"><defs><style>.cls-1{isolation:isolate;}.cls-2,.cls-3,.cls-4,.cls-5,.cls-6{fill:none;stroke-miterlimit:10;stroke-width:2px;}.cls-2{stroke:#0d80c4;}.cls-3{stroke:#1d1d1b;}.cls-4{stroke:#e7364f;}.cls-5{stroke:#07a651;}.cls-6{stroke:#f9b035;}.cls-7{fill:#87382c;}.cls-8{fill:#db9d73;}.cls-9{fill:#fac697;}.cls-10{fill:#432918;}.cls-11{fill:#713650;}.cls-12{fill:#583636;}.cls-13{fill:#e7364f;}.cls-14{fill:#a1364f;}.cls-15{fill:#d43f18;}.cls-16{fill:#0d6380;}.cls-17{fill:#f9bb8d;}.cls-18{fill:#e94e1b;}.cls-19{fill:#0d80c4;}.cls-20{fill:#acacac;}.cls-21{fill:#e5c9a6;}.cls-21,.cls-28,.cls-29{mix-blend-mode:multiply;}.cls-22{fill:#99613c;}.cls-23{fill:#f9b035;}.cls-24{fill:#b55a3a;}.cls-25{fill:#d15d36;}.cls-26{fill:#e09d72;}.cls-27{fill:#301b16;}.cls-28{fill:#e7dcd6;}.cls-29{fill:#d9cbca;}.cls-30{fill:#07a651;}</style></defs><title>Migrants&amp;apos; VoicesFichier 2</title><g class="cls-1"><g id="Calque_2" data-name="Calque 2"><g id="Capa_1" data-name="Capa 1"><circle class="cls-2" cx="80.66" cy="188.5" r="79.66"/><circle class="cls-3" cx="220.57" cy="188.5" r="79.66"/><circle class="cls-4" cx="389.09" cy="188.5" r="79.66"/><circle class="cls-5" cx="320.66" cy="322.29" r="79.66"/><circle class="cls-6" cx="142.02" cy="324.29" r="79.66"/><path class="cls-7" d="M340.6,186.33h54.74V166.11s-5.79-5.32-24.24-5.32-25.8,3.55-25.8,3.55Z"/><path class="cls-8" d="M353.73,172.7s7.09,10.64,16.31,10.64,15.25-10.64,15.25-10.64v-5.32H353.73Z"/><path class="cls-9" d="M423.17,129.2c-5.39,17-30.06,47.76-52.48,47.76-20.18,0-46.64-25.53-52.92-47.76s-4-47.76-4-47.76c0-30.26,9-62.89,57-62.89s57,37.83,57,67.15C427.65,85.7,428.54,112.18,423.17,129.2Z"/><path class="cls-10" d="M416.21,117.14c9-4.49,8-23.75,19.24-23.75C443.38,54.38,424.53,1,370.63,1c-57.28,0-71,58.05-68.7,94.63,10.34-6.77,6.2,12.74,20.33,21.48-5.72-12.29,6.89-8.81.78-28.61,5.94-8.39-1.35-42.68,46.47-42.68s36.16,24.24,45.58,37S419.58,111.94,416.21,117.14Z"/><path class="cls-11" d="M415.72,176.36c.47-1,8-4.19,8-4.19l-7.83-4.5-11.49-.43-11.47-1.13-31.85.32-20.6-.3L329,167.27l-1.71.43,2,4.5s-8.07,3.41-7.61,4.46c-10.75,2.67-24.94,3.63-27.57,10.36s-11.61,36-11.61,36H458.35S442.9,190.11,438,185.52,425.47,178.68,415.72,176.36Z"/><path class="cls-12" d="M332.28,96.64l-.74-.48a7.67,7.67,0,0,1-.81-.86,7.8,7.8,0,0,1-.48-1.07,7.44,7.44,0,0,1-.19-2.89,7.08,7.08,0,0,0,1,2.54,5.74,5.74,0,0,0,.59.67c.23.11.33.23.52.32l.85.24a.85.85,0,0,1-.47,1.64A.7.7,0,0,1,332.28,96.64Z"/><path class="cls-12" d="M332.44,99a9.08,9.08,0,0,1-.23-1.39,5.91,5.91,0,0,1,1.06-3.69,9.47,9.47,0,0,1,4.39-3.26,15.16,15.16,0,0,1,6.2-.94,15.72,15.72,0,0,1,3.12.68,21.67,21.67,0,0,1,2.83,1.13,14.93,14.93,0,0,1,4.38,3.14,7.48,7.48,0,0,1,2,3.26,4.43,4.43,0,0,1,.11,1.43,4.35,4.35,0,0,0-.42-1.31,8.61,8.61,0,0,0-2.32-2.67,21,21,0,0,0-7-3.45,23.43,23.43,0,0,0-2.82-.56c-3.77-.33-7.84,1-9.71,3.12A6.39,6.39,0,0,0,332.44,99Z"/><path class="cls-12" d="M410.28,95.11l.85-.24c.2-.09.29-.21.52-.32a5.74,5.74,0,0,0,.59-.67,7.18,7.18,0,0,0,.95-2.54,7.22,7.22,0,0,1-.19,2.89,5.53,5.53,0,0,1-.47,1.06,5.79,5.79,0,0,1-.81.87l-.74.48a.84.84,0,0,1-1.17-.24.85.85,0,0,1,.23-1.18A1.28,1.28,0,0,1,410.28,95.11Z"/><path class="cls-12" d="M410.81,99a6.31,6.31,0,0,0-1.54-4.51c-1.89-2.14-5.95-3.45-9.72-3.12a24,24,0,0,0-2.83.56,19.47,19.47,0,0,0-2.66.94,18.63,18.63,0,0,0-4.33,2.51A8.61,8.61,0,0,0,387.41,98a4.35,4.35,0,0,0-.42,1.31,4.21,4.21,0,0,1,.1-1.43,7.68,7.68,0,0,1,2-3.26,15.21,15.21,0,0,1,4.38-3.14,21.41,21.41,0,0,1,2.85-1.13,15.47,15.47,0,0,1,3.11-.68,15.16,15.16,0,0,1,6.2.94A9.52,9.52,0,0,1,410,93.9a6,6,0,0,1,1.06,3.69A8.21,8.21,0,0,1,410.81,99Z"/><path class="cls-8" d="M374.44,123.87a6.2,6.2,0,0,1-5.17,2.75c-3.56,0-5.91-1.05-6.43-1.64s3.49-7.69,3.49-7.69-1.87,5-1,6.19,3.16,1.21,4.26,1.21C373.11,124.69,374.44,123.87,374.44,123.87Z"/><path class="cls-13" d="M369.63,57.09c21.43,0,41.4,8.15,53.67,27.66,0-39.45-28.08-55.32-52.6-55.32s-56.69,25.41-48.63,55C332.63,67.73,348.21,57.09,369.63,57.09Z"/><path class="cls-13" d="M426.45,171h-5.24c2.1,0,3.81-2,3.81-4.51a4.83,4.83,0,0,0-1.44-3.51,4,4,0,0,0,1.44-3.09,3.89,3.89,0,0,0-3.79-4H323.44a3.89,3.89,0,0,0-3.78,4,4.09,4.09,0,0,0,1.14,2.84,4.77,4.77,0,0,0-1.71,3.76c0,2.49,1.71,4.51,3.81,4.51h-5.25c-2.32,0-6.12,9.11-6.12,11.6s29.7,16.3,61.83,16.3,57.3-13.11,57.3-15.6S428.78,171,426.45,171Z"/><path class="cls-14" d="M411.9,177.49a155.6,155.6,0,0,1-75.19,0s16.84,1.06,37.6,1.06S411.9,177.49,411.9,177.49Z"/><path class="cls-14" d="M418,190.25a220.44,220.44,0,0,1-44.61,4.62,220.56,220.56,0,0,1-44.61-4.62s20,1.07,44.61,1.07S418,190.25,418,190.25Z"/><path class="cls-15" d="M49.93,201.35c11.2,21.2,47.85,29.49,72.32-6.37S146.3,95.49,146.3,95.49L34.38,89.64S21.91,148.33,49.93,201.35Z"/><path class="cls-16" d="M57.52,195H109.6l-1.13-20.92s-4.93-4.65-22.49-4.65-24,4.65-24,4.65Z"/><polygon class="cls-17" points="40.31 235.47 129.73 235.47 137.83 191.82 100.04 183.73 100.04 158.87 70 158.87 70 183.73 32.21 191.82 40.31 235.47"/><path class="cls-8" d="M70,163.94s6.74,10.12,15.52,10.12S100,163.94,100,163.94v-5.07H70Z"/><path class="cls-17" d="M136.07,122.54C131,138.74,107.48,168,86.14,168c-19.19,0-44.37-24.3-50.35-45.45S32,77.11,32,77.11c0-28.8,8.54-59.84,54.19-59.84s54.19,36,54.19,63.88C140.33,81.15,141.19,106.35,136.07,122.54Z"/><path class="cls-17" d="M18.45,109.85c2.89,9.52,12.82,14.53,15,9.55s6.55-7.51,5.21-15.58S26.93,87,22.42,89.47C15.38,93.29,16.09,102.05,18.45,109.85Z"/><path class="cls-18" d="M128.13,124.51c8.36-4.79,7.43-25.33,17.93-25.33C156.18,57.82,130.38,6,112.66,14.41,106.24.33,89.71-1.57,72.18.94,29.84,7,14.51,42.12,14.51,99.83c0,53.69,21.33,113.42,21.33,113.42l11.94-2.93c2-.48-19.2-64.3-2-116.46C54.44,67.46,91,85.18,107.9,49.12c5,18.4,10.4,25.21,19.18,38.83S131.27,119,128.13,124.51Z"/><path class="cls-19" d="M137.17,197.28l1.9-16.69L118.39,179l-9.92-4.93s-.75,9.5-22.38,9.5S62,174.06,62,174.06l-14.52,4.88-20.68,1.6,1.9,16.68s11.18,12.67,11.63,16.56C33.57,222,26.18,240.2,26.18,240.2a381.12,381.12,0,0,0,58,4.2,424.4,424.4,0,0,0,59.26-4.06s-7.29-19.27-14-27.53C129.84,208.92,137.17,197.28,137.17,197.28Z"/><path class="cls-12" d="M49.59,91.57l-.7-.45a5.72,5.72,0,0,1-.76-.83,6.06,6.06,0,0,1-.46-1,7.07,7.07,0,0,1-.18-2.75,6.79,6.79,0,0,0,.91,2.41,4.57,4.57,0,0,0,.56.64c.21.11.31.22.49.31l.81.23a.81.81,0,0,1,.56,1,.82.82,0,0,1-1,.56A.91.91,0,0,1,49.59,91.57Z"/><path class="cls-12" d="M49.76,93.78a8.09,8.09,0,0,1-.23-1.32,5.61,5.61,0,0,1,1-3.5c1.8-2.66,6-4.26,10.08-4a18,18,0,0,1,5.66,1.72,14.29,14.29,0,0,1,4.17,3,7.11,7.11,0,0,1,1.87,3.1,4.75,4.75,0,0,1,.11,1.35,4.3,4.3,0,0,0-.4-1.25,8.57,8.57,0,0,0-2.21-2.53A17.81,17.81,0,0,0,65.7,88a17.6,17.6,0,0,0-2.53-.89,21.71,21.71,0,0,0-2.69-.54c-3.59-.31-7.46.94-9.25,3A6,6,0,0,0,49.76,93.78Z"/><path class="cls-12" d="M123.81,90.12l.81-.23c.19-.09.28-.2.5-.31a5.33,5.33,0,0,0,.56-.64,6.89,6.89,0,0,0,.9-2.41,6.85,6.85,0,0,1-.18,2.75,5.3,5.3,0,0,1-.45,1,6.35,6.35,0,0,1-.76.83l-.7.45a.82.82,0,0,1-1.13-.22.83.83,0,0,1,.23-1.13A1.07,1.07,0,0,1,123.81,90.12Z"/><path class="cls-12" d="M124.31,93.78a6,6,0,0,0-1.47-4.28c-1.79-2-5.66-3.28-9.24-3a19.67,19.67,0,0,0-2.69.53,17.18,17.18,0,0,0-2.53.89,17.6,17.6,0,0,0-4.12,2.39,8.28,8.28,0,0,0-2.21,2.53,4.3,4.3,0,0,0-.4,1.25,4.07,4.07,0,0,1,.1-1.35,7.05,7.05,0,0,1,1.88-3.1,14.24,14.24,0,0,1,4.16-3A18,18,0,0,1,113.45,85c4.1-.26,8.28,1.34,10.08,4a5.61,5.61,0,0,1,1,3.5A6.91,6.91,0,0,1,124.31,93.78Z"/><path class="cls-8" d="M89.72,117.46a5.9,5.9,0,0,1-4.93,2.64c-3.38,0-5.62-1-6.12-1.57S82,111.22,82,111.22s-1.78,4.72-1,5.88,3,1.15,4,1.15C88.44,118.25,89.72,117.46,89.72,117.46Z"/><path class="cls-10" d="M167.63,106.67c0,11.89,28.69,48.64,61.77,48.64S291,116.09,291,104.2s-26.81-11.52-59.89-11.52S167.63,94.78,167.63,106.67Z"/><path class="cls-20" d="M201.73,184h52.39L255.9,163s-7.72-6.1-25.37-6.1-27.16,7.8-27.16,7.8Z"/><polygon class="cls-17" points="187.5 224.73 270.05 224.73 277.52 180.83 242.63 172.68 242.63 147.68 214.91 147.68 214.91 172.68 175.04 180.83 187.5 224.73"/><path class="cls-21" d="M214.29,152.77S221.08,163,229.9,163s14.6-10.18,14.6-10.18v-5.09H214.29Z"/><path class="cls-22" d="M280.75,111.13c-10.77,30.71-26.63,45.72-50.22,45.72-23.88,0-38.91-15.34-50.65-45.72-8-20.62-3.87-45.71-3.87-45.71,0-29,8.59-60.19,54.52-60.19S285,41.43,285,69.49C285,69.49,286.4,95,280.75,111.13Z"/><path class="cls-10" d="M279.87,92.68s4-17.78,14.34-14.66c.36-11.2-.78-9.76-3.25-31.52s-20-60.28-82.86-41.27C192.63-.47,173.67,13,167.63,38c-3.17,13.18-5,30.5-2.91,41,9.9-6.48,14.39,13.65,14.39,13.65l3.67-.39s-7.52-9.42,1.64-17.84c-5.09-7.29,5.46-31.94,10.29-34.29,9.79-4.74,7.56,5,35.36,11.88,23.43,5.77,31.38,2.38,45.83,1,4.1-.38.32,18-1.53,21.39,10.38,6.81,2.77,17.6,2.77,17.6Z"/><path d="M280.79,183.37l.72-6.24-24.35-.48-7.25-1.44-21.5,2.37v-.11l-18.89-2.08-8.62,1.26-24.36.48.73,6.24s2.8,4.58,2.69,6-14.27,50.47-14.27,50.47,33.09-.21,64.65-.21,65.75.21,65.75.21-17-49.33-17.13-50.71S280.79,183.37,280.79,183.37Z"/><path class="cls-12" d="M193.8,82.64a7.76,7.76,0,0,1-.21-1.26,5.25,5.25,0,0,1,.95-3.32c1.7-2.53,5.68-4,9.57-3.79a17,17,0,0,1,5.37,1.63,13.36,13.36,0,0,1,4,2.83,7,7,0,0,1,1.79,3,2.86,2.86,0,0,1,.06,1.29,3.48,3.48,0,0,0-.35-1.19,7.85,7.85,0,0,0-2.09-2.4,17.2,17.2,0,0,0-3.91-2.27,18.12,18.12,0,0,0-5-1.35c-3.41-.3-7.07.88-8.77,2.81A5.68,5.68,0,0,0,193.8,82.64Z"/><path class="cls-12" d="M264.55,82.64a5.74,5.74,0,0,0-1.4-4.07c-1.7-1.93-5.37-3.11-8.77-2.81a18,18,0,0,0-5,1.35,17,17,0,0,0-3.91,2.27,7.71,7.71,0,0,0-2.09,2.4A4.16,4.16,0,0,0,243,83a4,4,0,0,1,.1-1.28,6.88,6.88,0,0,1,1.77-3,13.75,13.75,0,0,1,4-2.84,17.05,17.05,0,0,1,5.38-1.62c3.88-.25,7.86,1.26,9.56,3.79a5.31,5.31,0,0,1,.95,3.32A7.76,7.76,0,0,1,264.55,82.64Z"/><path class="cls-10" d="M179.11,92.68c.75,3.93,3.36,13.5,0,18.43,3.94,19.63,20.16,45.74,51.42,45.74,23.59,0,41.23-11.64,52-42.35-2.46-2.88-3.3-17.72-2.65-21.82,0,0-.67-5-2.73-.63-2.5,5.3-2.24,20.18-12.36,24.32-7.53,3.08-23.52-3.73-36.23-3.73-10.31,0-25.18,6.58-32.8,3-9.9-4.67-11.29-20.08-13-23.34C179.81,86.52,179.11,92.68,179.11,92.68Z"/><path class="cls-21" d="M234.12,106a5.93,5.93,0,0,1-5,2.65c-3.4,0-5.65-1-6.15-1.58s3.34-7.35,3.34-7.35-1.79,4.74-1,5.92,3,1.15,4.07,1.15C232.84,106.81,234.12,106,234.12,106Z"/><path class="cls-22" d="M243.81,128.05a27.76,27.76,0,0,0,.46-5.06h-27.8a28,28,0,0,0,.42,4.82c.16.89,5,3.35,6.08,2.59,5-3.64,9.9-3.63,14.49,0C238.57,131.29,243.65,128.85,243.81,128.05Z"/><path d="M192.15,176.37s13.12,12.36,37.92,12.36,35.26-12.36,35.26-12.36L255.9,163s-9.43,7.47-27.09,7.47-25.44-5.77-25.44-5.77Z"/><path class="cls-10" d="M188.75,271.42c-17.35,20.77-39.41,27.72-48.06,27.72-8.85,0-32.75-6.09-50.59-27.72C80,259.18,72.9,224.07,70.24,207.23c-1.53-9.67-2.77-30.2,4-40.5,10.65-16.18,30.58-27.54,63.87-27.54,12.6,0,30.31-.42,32.43,7.95,17-.59,25.63,8.24,29.84,15.8,6.13,11,8.41,26.49,6.83,41.21C205.15,223.56,199.16,259,188.75,271.42Z"/><path class="cls-23" d="M210.31,376c2.59-28.15,2.76-51.66,2.76-51.66s-24.5-8.07-38.58-10.61c-13.25-2.38-28.78-2.12-30.4-2.08s-17.14-.3-30.39,2.08c-14.07,2.54-38.17,10.61-38.17,10.61S74.26,346,77.94,376Z"/><path class="cls-17" d="M140.73,341.85s32.23-27.26,30.19-29c-9.42-8-6.78-28.77-6.78-28.77H117.72s4.3,25.16-7.46,30.86C109.26,315.42,140.73,341.85,140.73,341.85Z"/><path class="cls-17" d="M196.13,239.45c-2.37,17.64-4.12,27-13.28,40.29-15.26,22.11-34.67,29.5-42.28,29.5-7.78,0-28.82-6.48-44.51-29.5-8.89-13-10.37-24.29-12.78-40.29-2.9-19.23-3.13-12.45-3.13-30.59,0-37,14.27-63.65,55.7-63.65s62.61,23.23,63.24,61.16C199.43,227.16,198.72,220.11,196.13,239.45Z"/><path class="cls-10" d="M84,244.3c2.06,13.5,2.25,23.22,10.21,34.9,15.69,23,38.56,30,46.34,30,7.61,0,29-7.31,44.26-29.41,8.28-12,8.53-20.92,10.62-35.53L178.53,272s-11.87,15.26-27.09,20.9c-3.27,1.21-8.48-10.38-11.78-10.38-4.15,0-8.34,11.86-12.53,10.05C112.48,286.28,99.27,272,99.27,272Z"/><path class="cls-10" d="M83.72,206c13.73-10.37,62.5,3.36,80.16-27.19,21.06.27,25.51,21,28.87,28.59s3.29,32.66,3.38,32c2.59-19.34,5.65-11.79,5.31-32.57-.63-37.94-22.95-64.19-64.42-64.19s-58.91,29.19-58.91,66.15c0,18.15,2.27,11.38,5.17,30.61C83.38,240.11,78.65,209.87,83.72,206Z"/><path class="cls-23" d="M177.61,343.38c-10.12-15.52-29-8.4-29-8.4s19.47-18.28,22.32-22.13,22.39-3.61,27.23,5.1C200.61,322.38,182.61,336.61,177.61,343.38Z"/><path class="cls-23" d="M105.47,344.49c10.12-15.52,29-8.4,29-8.4S115,317.81,112.16,314s-22.39-3.61-27.23,5.1C82.47,323.49,100.48,337.72,105.47,344.49Z"/><path class="cls-24" d="M150.14,340.57H134.87s-8.74-10.57-5.89-13,21.87-2.39,25.23,0S150.14,340.57,150.14,340.57Z"/><polygon class="cls-25" points="154.79 375.97 150.14 340.57 134.87 340.57 129.76 375.97 154.79 375.97"/><path class="cls-10" d="M166.63,229c4,0,9.59,1.54,12.37,2.4.65.2.31,2.39-.75,4.21a8.1,8.1,0,0,0,2.5-4.85s-8.58-3-14.12-3-10,6.18-10,6.18a2.24,2.24,0,0,0,.65,1C158.23,233.74,161.83,229,166.63,229Z"/><path class="cls-10" d="M112.59,229c-4,0-9.59,1.54-12.38,2.4-.63.2-.3,2.39.76,4.21a8.1,8.1,0,0,1-2.5-4.85s8.58-3,14.12-3,10,6.18,10,6.18a2.28,2.28,0,0,1-.64,1C121,233.74,117.4,229,112.59,229Z"/><polygon class="cls-26" points="137.59 256.15 132.54 252.16 137.59 240.38 137.59 256.15"/><path class="cls-27" d="M237.34,236.28v0h0Z"/><path class="cls-27" d="M402.1,213.79a3.3,3.3,0,0,0,.51-2,3.73,3.73,0,0,0-.59-2,3.76,3.76,0,0,0,.44-2,3.65,3.65,0,0,0-.71-1.91,3.4,3.4,0,0,0,.35-2,3.71,3.71,0,0,0-.82-1.91,3.47,3.47,0,0,0,.23-2,3.69,3.69,0,0,0-.89-1.84,3.67,3.67,0,0,0,.11-2,3.49,3.49,0,0,0-1-1.8,3.51,3.51,0,0,0,0-2,4.25,4.25,0,0,0-1.1-1.77,3.55,3.55,0,0,0-.12-2,4,4,0,0,0-1.18-1.68,3.68,3.68,0,0,0-.23-2,4,4,0,0,0-1.26-1.62,3.58,3.58,0,0,0-.31-2,3.74,3.74,0,0,0-1.37-1.61,3.56,3.56,0,0,0-.52-2.07,3.44,3.44,0,0,0-1.57-1.5,3.58,3.58,0,0,0-.74-2,3.65,3.65,0,0,0-1.73-1.31,3.72,3.72,0,0,0-.86-1.92,4.32,4.32,0,0,0-1.81-1.17,3.61,3.61,0,0,0-1.06-1.84,3.94,3.94,0,0,0-1.88-1,3.89,3.89,0,0,0-1.14-1.73,4,4,0,0,0-2-.9,3.72,3.72,0,0,0-1.26-1.65,3.82,3.82,0,0,0-2-.79,3.49,3.49,0,0,0-1.38-1.58,3.77,3.77,0,0,0-2-.67,3.56,3.56,0,0,0-1.45-1.51h0a4.77,4.77,0,0,0-2-.6,3.92,3.92,0,0,0-1.53-1.43,4.67,4.67,0,0,0-2.08-.49,4.1,4.1,0,0,0-1.57-1.35,4.54,4.54,0,0,0-2.08-.37,3.73,3.73,0,0,0-1.61-1.28,4.13,4.13,0,0,0-2.12-.3,3.36,3.36,0,0,0-1.68-1.2,4,4,0,0,0-2.08-.23,4.12,4.12,0,0,0-1.77-1.13,4,4,0,0,0-2.08-.15,3.93,3.93,0,0,0-1.8-1.05,3.73,3.73,0,0,0-2.12,0,4,4,0,0,0-1.81-1,4.1,4.1,0,0,0-2.12,0,4,4,0,0,0-1.88-.94,4.46,4.46,0,0,0-2.09.11,4.45,4.45,0,0,0-1.92-.86h0a4.11,4.11,0,0,0-2.12.22,3.88,3.88,0,0,0-1.92-.79,3.81,3.81,0,0,0-2.08.27,3.88,3.88,0,0,0-2-.75,4.13,4.13,0,0,0-2.08.34,3.91,3.91,0,0,0-2-.64,4.29,4.29,0,0,0-2.08.41,4,4,0,0,0-2-.6,3.86,3.86,0,0,0-2,.49,3.92,3.92,0,0,0-2-.52,4.1,4.1,0,0,0-2,.52,4.06,4.06,0,0,0-2-.45,4,4,0,0,0-2,.64,4,4,0,0,0-4,.29,4.21,4.21,0,0,0-4,.46,3.9,3.9,0,0,0-2.08-.23,3.56,3.56,0,0,0-1.92.83,3.84,3.84,0,0,0-2.08-.19,4,4,0,0,0-1.89.9,4.53,4.53,0,0,0-2.11-.07,3.72,3.72,0,0,0-1.85,1,4.21,4.21,0,0,0-2.12,0,4,4,0,0,0-1.8,1.06,4,4,0,0,0-2.08.07,3.78,3.78,0,0,0-1.81,1.09,4.55,4.55,0,0,0-2.09.15,3.73,3.73,0,0,0-1.72,1.17,3.94,3.94,0,0,0-2.08.22,4,4,0,0,0-1.69,1.24,4.45,4.45,0,0,0-2.07.3,3.66,3.66,0,0,0-1.62,1.32,4.13,4.13,0,0,0-2.08.41,3.84,3.84,0,0,0-1.56,1.35,4,4,0,0,0-2.05.52,4.07,4.07,0,0,0-1.53,1.43,4,4,0,0,0-2,.61,3.58,3.58,0,0,0-1.45,1.49,4.71,4.71,0,0,0-2,.72,4,4,0,0,0-1.33,1.58,4,4,0,0,0-3.22,2.48,3.81,3.81,0,0,0-1.93.94,3.86,3.86,0,0,0-1.14,1.72,4.27,4.27,0,0,0-1.88,1.06,3.73,3.73,0,0,0-1,1.84,3.78,3.78,0,0,0-1.8,1.2,3.4,3.4,0,0,0-.87,2,3.57,3.57,0,0,0-1.69,1.35,3.46,3.46,0,0,0-.7,2,3.63,3.63,0,0,0-1.53,1.5,3.47,3.47,0,0,0-.47,2.15,3.71,3.71,0,0,0-1.58,3.83,3.67,3.67,0,0,0-1.13,1.65,3.76,3.76,0,0,0,0,2.1,3.85,3.85,0,0,0-1,1.84,3.38,3.38,0,0,0,.11,2.07,3.48,3.48,0,0,0-.9,1.84,3.67,3.67,0,0,0,.2,2,3.57,3.57,0,0,0-.79,1.88,3.46,3.46,0,0,0,.28,2,3.89,3.89,0,0,0-.75,1.84,3.81,3.81,0,0,0,.39,2,3.4,3.4,0,0,0-.7,1.88,3.67,3.67,0,0,0,.43,1.95,3.34,3.34,0,0,0-.67,1.88,3.24,3.24,0,0,0,.47,1.92,3.71,3.71,0,0,0-.63,1.91,3.56,3.56,0,0,0,.51,1.92,4,4,0,0,0-.58,1.91,3.48,3.48,0,0,0,.55,1.92,3.47,3.47,0,0,0-.55,1.91,3.7,3.7,0,0,0,.58,1.92,3.29,3.29,0,0,0-.51,1.91,3.39,3.39,0,0,0,.6,1.88,3.62,3.62,0,0,0-.44,1.95,3.1,3.1,0,0,0,.63,1.88,3.43,3.43,0,0,0-.39,2,3.56,3.56,0,0,0,.67,1.92,3.73,3.73,0,0,0-.32,1.95,3.46,3.46,0,0,0,.79,1.91,3.78,3.78,0,0,0-.28,2v0a4,4,0,0,0,.83,1.77,3.56,3.56,0,0,0-.2,1.95,3.85,3.85,0,0,0,.82,1.8,3.65,3.65,0,0,0,.67,3.72,3.68,3.68,0,0,0-.2,1.95,3.6,3.6,0,0,0,.91,1.8,3.62,3.62,0,0,0-.2,2,4.08,4.08,0,0,0,.9,1.77,3.88,3.88,0,0,0-.12,2,3.79,3.79,0,0,0,1,1.76,3.33,3.33,0,0,0-.12,2,3.68,3.68,0,0,0,.94,1.76,3.52,3.52,0,0,0,0,2,3.69,3.69,0,0,0,1,1.73,3.63,3.63,0,0,0,0,2,3.74,3.74,0,0,0,1.05,1.73,3.54,3.54,0,0,0,0,2,3.64,3.64,0,0,0,1.1,1.69,3.57,3.57,0,0,0,.08,2,3.72,3.72,0,0,0,1.14,1.69,3.55,3.55,0,0,0,.12,2v0a4.08,4.08,0,0,0,1.21,1.65,3.76,3.76,0,0,0,.24,2,3.6,3.6,0,0,0,1.26,1.61,3.55,3.55,0,0,0,.35,2,3.46,3.46,0,0,0,1.37,1.58,3.74,3.74,0,0,0,.39,2h0a3.89,3.89,0,0,0,1.46,1.47,3.84,3.84,0,0,0,.58,2A3.8,3.8,0,0,0,256,297a3.42,3.42,0,0,0,.74,2,3.61,3.61,0,0,0,1.77,1.27,3.52,3.52,0,0,0,.86,1.88,4.3,4.3,0,0,0,1.77,1.13,3.47,3.47,0,0,0,1,1.8,3.81,3.81,0,0,0,1.76,1.05,4.46,4.46,0,0,0,1.06,1.77,4.14,4.14,0,0,0,1.85,1,3.81,3.81,0,0,0,1.13,1.73,3.67,3.67,0,0,0,1.88.9,3.77,3.77,0,0,0,1.18,1.66,4.45,4.45,0,0,0,1.93.86,4.32,4.32,0,0,0,1.3,1.62,4.25,4.25,0,0,0,2,.75,3.68,3.68,0,0,0,1.33,1.54,3.81,3.81,0,0,0,2,.67,4.16,4.16,0,0,0,1.42,1.54,3.93,3.93,0,0,0,2,.57,3.52,3.52,0,0,0,1.45,1.46,4.09,4.09,0,0,0,2,.53,4,4,0,0,0,1.53,1.39,4,4,0,0,0,2.08.41,3.64,3.64,0,0,0,1.61,1.35,4,4,0,0,0,2.08.34,4.06,4.06,0,0,0,1.65,1.28,4.4,4.4,0,0,0,2.08.26,3.87,3.87,0,0,0,1.73,1.16,4.06,4.06,0,0,0,2.12.19,4.25,4.25,0,0,0,1.76,1.13,4.14,4.14,0,0,0,2.12.07,3.55,3.55,0,0,0,1.85,1,4,4,0,0,0,2.12,0,4.15,4.15,0,0,0,4.08.79,4.32,4.32,0,0,0,2,.82,3.85,3.85,0,0,0,2.2-.33,4,4,0,0,0,2.16.67h.11a4.15,4.15,0,0,0,2.16-.6A4.56,4.56,0,0,0,324,333a4.41,4.41,0,0,0,2-.87,4.24,4.24,0,0,0,2.16.16,4.33,4.33,0,0,0,1.92-1,4.16,4.16,0,0,0,2.16,0,4.07,4.07,0,0,0,1.81-1.09,4.14,4.14,0,0,0,2.12-.11,3.9,3.9,0,0,0,1.76-1.17,4.23,4.23,0,0,0,2.12-.22,4.33,4.33,0,0,0,1.69-1.24,4,4,0,0,0,2.08-.35,4.18,4.18,0,0,0,1.61-1.27,4,4,0,0,0,2.08-.41,4.41,4.41,0,0,0,1.57-1.39,3.75,3.75,0,0,0,2-.49,3.8,3.8,0,0,0,1.49-1.43,4,4,0,0,0,3.46-2.06,3.68,3.68,0,0,0,2-.65,4,4,0,0,0,1.37-1.53,4.11,4.11,0,0,0,2-.71,4,4,0,0,0,1.3-1.58,4.29,4.29,0,0,0,1.92-.8,4,4,0,0,0,1.26-1.64,4.2,4.2,0,0,0,1.88-.87,4.26,4.26,0,0,1,3-2.63,3.67,3.67,0,0,0,1.1-1.73,3.87,3.87,0,0,0,1.84-1,3.72,3.72,0,0,0,1-1.77,3.91,3.91,0,0,0,1.77-1.05,3.46,3.46,0,0,0,.94-1.8,4.4,4.4,0,0,0,1.77-1.13h0l.08-.08s0,0,0,0a3.8,3.8,0,0,0,.9-2,3.66,3.66,0,0,0,1.69-1.39,3.57,3.57,0,0,0,.63-2,3.85,3.85,0,0,0,1.53-1.47,3.78,3.78,0,0,0,.43-2,3.76,3.76,0,0,0,1.42-1.58,3.67,3.67,0,0,0,.31-2,3.79,3.79,0,0,0,1.29-1.61,3.48,3.48,0,0,0,.24-2,3.53,3.53,0,0,0,1.22-1.66,3.19,3.19,0,0,0,.15-2,3.63,3.63,0,0,0,1.3-3.64,4.32,4.32,0,0,0,1.1-1.69,3.84,3.84,0,0,0,0-2,3.56,3.56,0,0,0,1.06-1.73,3.71,3.71,0,0,0,.05-2,4.19,4.19,0,0,0,1-1.73,3.73,3.73,0,0,0,0-2,3.57,3.57,0,0,0,.95-3.72,3.51,3.51,0,0,0,1-1.73,3.38,3.38,0,0,0-.12-2,3.17,3.17,0,0,0,.94-1.73,3.36,3.36,0,0,0-.12-2,3.48,3.48,0,0,0,.79-3.71,3.38,3.38,0,0,0,.9-1.77,3.83,3.83,0,0,0-.15-2,3.63,3.63,0,0,0,.86-1.77,3.57,3.57,0,0,0-.2-1.95,3.7,3.7,0,0,0,.67-3.76,3.55,3.55,0,0,0,.82-1.8,3.68,3.68,0,0,0-.23-2,3.56,3.56,0,0,0,.55-3.76,3.76,3.76,0,0,0,.82-1.8,3.94,3.94,0,0,0-.28-1.95,3.83,3.83,0,0,0,.75-1.85,3.34,3.34,0,0,0-.27-2,3.89,3.89,0,0,0,.75-1.84,3.54,3.54,0,0,0-.36-2,3.7,3.7,0,0,0,.71-1.88v0a3.81,3.81,0,0,0-.43-2,3.72,3.72,0,0,0,.62-1.95A3.67,3.67,0,0,0,402.1,213.79Z"/><path class="cls-22" d="M258,371.21a9.72,9.72,0,0,0,1,1.49h63.52V314.91c-3.25,0-5.5,0-6.09,0-1.82,0-19.18-.25-34,1.74a164.55,164.55,0,0,0-28.88,6.67s7.4,8.62,11.59,25.67C267.19,357.57,256.12,367.69,258,371.21Z"/><path class="cls-22" d="M381.64,372.7a13.54,13.54,0,0,0,1.12-1.71c1.86-3.52-9.48-14.3-8.16-22,2.91-16.88,13.09-25.67,13.09-25.67a164.83,164.83,0,0,0-28.88-6.67c-14.82-2-32.2-1.77-34-1.74-.58,0-2.84,0-6.09,0V372.7Z"/><path class="cls-22" d="M270.05,242.13s1.84-14.15-11.23-10.77c-10,2.6.48,28.92,7.13,31.21,5.69,1.95,6.89-2.11,6.89-2.11Z"/><path class="cls-22" d="M367,242.08s-2-14.18,11.08-10.63c10.08,2.73-.08,28.91-6.7,31.12-5.66,1.88-6.92-2.21-6.92-2.21Z"/><path class="cls-22" d="M319.54,342.6s26.95-25.33,25.34-26.55c-9.39-7.1-8.82-27-8.82-27l-34-2.45s2.14,28.58-7.91,32.12C293.43,319,319.54,342.6,319.54,342.6Z"/><path class="cls-28" d="M300.63,309a14,14,0,0,1,6.9,4.08c9.06,9.3,22.33,5,30.8-3.2.4-.38.8-.72,1.21-1.05-3.8-8.59-3.48-19.78-3.48-19.78l-34-2.45S303,299.47,300.63,309Z"/><path class="cls-22" d="M368.21,245.44c-2.08,16.74-3.62,25.66-11.68,38.24-13.43,21-37.2,28-37.2,28s-25.34-6.15-39.15-28c-7.82-12.38-9.12-23.05-11.24-38.24-2.55-18.24-2.75-11.8-2.75-29,0-35.06,12.56-60.38,49-60.38s55.07,22,55.62,58C371.12,233.78,370.49,227.1,368.21,245.44Z"/><path class="cls-10" d="M293.85,236.61c-3.76,0-8.52,1.75-11.14,2.57-.6.18-.77,2,.23,3.71-2.14-2-3.68-5.93-3.68-5.93s2.56.92,3.4.66a41.21,41.21,0,0,1,11.19-2.16c5.2,0,9.43,5.86,9.43,5.86a2.2,2.2,0,0,1-.61,1C301.75,241.09,298.36,236.61,293.85,236.61Z"/><polygon class="cls-29" points="318.66 260.22 313.92 256.43 318.83 244.26 318.66 260.22"/><path class="cls-10" d="M341.34,236.61c3.77,0,8.53,1.75,11.15,2.57.6.18.77,2-.23,3.71,2.14-2,3.68-5.93,3.68-5.93s-2.57.92-3.4.66a41.21,41.21,0,0,0-11.2-2.16c-5.2,0-9.43,5.86-9.43,5.86a2.2,2.2,0,0,0,.61,1C333.45,241.09,336.83,236.61,341.34,236.61Z"/><path class="cls-27" d="M378,220v0h0A0,0,0,0,0,378,220Z"/><path class="cls-27" d="M376.67,218.34a1.6,1.6,0,0,0,1.49-1.59,1.63,1.63,0,0,0-1.49-1.6,1.56,1.56,0,0,0,1.45-1.62,1.59,1.59,0,0,0-1.51-1.57,1.59,1.59,0,0,0-.22-3.16,1.59,1.59,0,0,0-.32-3.16,1.6,1.6,0,0,0,1.26-1.78,1.56,1.56,0,0,0-1.67-1.38,1.61,1.61,0,0,0,1.17-1.85,1.55,1.55,0,0,0-1.74-1.28,1.61,1.61,0,0,0,1.08-1.88,1.59,1.59,0,0,0-1.77-1.25,1.6,1.6,0,0,0,1-1.91,1.58,1.58,0,0,0-1.83-1.15,1.62,1.62,0,0,0,.88-2,1.6,1.6,0,0,0-1.89-1.05,1.6,1.6,0,0,0-1.14-3,1.64,1.64,0,0,0,.73-2.07,1.62,1.62,0,0,0-2-.83,1.59,1.59,0,0,0-1.42-2.84,1.64,1.64,0,0,0,.47-2.14,1.59,1.59,0,0,0-2.11-.57,1.6,1.6,0,0,0,.38-2.17,1.57,1.57,0,0,0-2.12-.48,1.64,1.64,0,0,0,.22-2.2,1.6,1.6,0,0,0-2.15-.35,1.62,1.62,0,0,0,.1-2.18,1.58,1.58,0,0,0-2.15-.22,1.58,1.58,0,0,0-.07-2.17,1.54,1.54,0,0,0-2.14-.09,1.64,1.64,0,0,0-.19-2.17,1.56,1.56,0,0,0-2.18.06,1.59,1.59,0,0,0-2.49-2,1.58,1.58,0,0,0-2.6-1.79,1.6,1.6,0,0,0-.6-2.1,1.54,1.54,0,0,0-2.11.48,1.58,1.58,0,0,0-2.79-1.47,1.62,1.62,0,0,0-.82-2,1.55,1.55,0,0,0-2.05.73,1.6,1.6,0,0,0-.95-2,1.54,1.54,0,0,0-2,.83,1.62,1.62,0,0,0-1-1.91,1.6,1.6,0,0,0-2,.92,1.58,1.58,0,0,0-1.14-1.85,1.54,1.54,0,0,0-1.89,1,1.59,1.59,0,0,0-3.1-.71,1.57,1.57,0,0,0-1.29-1.72,1.62,1.62,0,0,1-3.19-.48,1.61,1.61,0,0,1-3.19-.32,1.52,1.52,0,0,0-1.68,1.34,1.59,1.59,0,0,0-1.52-1.56,1.55,1.55,0,0,0-1.63,1.4,1.58,1.58,0,0,0-1.55-1.5,1.6,1.6,0,0,0-1.62,1.44,1.59,1.59,0,0,0-3.16.13,1.56,1.56,0,0,0-1.67-1.38,1.58,1.58,0,0,0-1.45,1.6,1.58,1.58,0,0,0-3.13.38,1.58,1.58,0,0,0-1.8-1.21,1.6,1.6,0,0,0-1.33,1.72,1.55,1.55,0,0,0-1.83-1.09,1.58,1.58,0,0,0-1.23,1.8,1.58,1.58,0,0,0-1.93-1,1.62,1.62,0,0,0-1.11,1.89,1.55,1.55,0,0,0-2-.9v0a1.65,1.65,0,0,0-1,2,1.52,1.52,0,0,0-2-.8,1.56,1.56,0,0,0-.92,2,1.59,1.59,0,0,0-2-.7,1.67,1.67,0,0,0-.82,2,1.57,1.57,0,0,0-2.08-.58,1.64,1.64,0,0,0-.7,2.08,1.54,1.54,0,0,0-2.12-.45,1.64,1.64,0,0,0-.56,2.11,1.6,1.6,0,0,0-2.15-.32,1.65,1.65,0,0,0-.44,2.14,1.59,1.59,0,0,0-2.15-.2,1.64,1.64,0,0,0-.29,2.21,1.59,1.59,0,0,0-2.21-.1,1.65,1.65,0,0,0-.19,2.2,1.52,1.52,0,0,0-2.14,0,1.66,1.66,0,0,0-.1,2.21,1.58,1.58,0,0,0-2.09,2.35,1.57,1.57,0,0,0-2.14.33A1.59,1.59,0,0,0,269,176a1.57,1.57,0,0,0-2.12.41,1.63,1.63,0,0,0,.25,2.14,1.59,1.59,0,0,0-1.67,2.68,1.62,1.62,0,0,0-2.06.67,1.6,1.6,0,0,0,.54,2.14,1.61,1.61,0,0,0-2.05.73,1.64,1.64,0,0,0,.63,2.11,1.56,1.56,0,0,0-2,.86,1.6,1.6,0,0,0,.73,2,1.61,1.61,0,0,0-1.14,3,1.58,1.58,0,0,0-1.9,1.06,1.61,1.61,0,0,0,.95,2,1.57,1.57,0,0,0-1.86,1.12,1.62,1.62,0,0,0,1,1.95,1.6,1.6,0,0,0-1.81,1.21,1.63,1.63,0,0,0,1.11,1.88,1.59,1.59,0,0,0-1.73,1.31,1.56,1.56,0,0,0,1.2,1.82,1.6,1.6,0,0,0-.45,3.16,1.57,1.57,0,0,0-1.61,1.46,1.6,1.6,0,0,0,1.33,1.73,1.59,1.59,0,0,0-.16,3.16,1.6,1.6,0,0,0,0,3.19,1.6,1.6,0,0,0,.19,3.19,1,1,0,0,0,.44-.1,1.66,1.66,0,0,0-.6,2.08,1.61,1.61,0,0,0,2.06.77,1.57,1.57,0,0,0-.64,2.07,1.59,1.59,0,0,0,2,.8,1.6,1.6,0,0,0-.63,2.07,1.57,1.57,0,0,0,2,.77,1.58,1.58,0,0,0-.63,2.07,1.54,1.54,0,0,0,2,.8,1.65,1.65,0,0,0-.63,2.07,1.57,1.57,0,0,0,2,.8,1.64,1.64,0,0,0-.63,2.08,1.59,1.59,0,0,0,2,.79,1.6,1.6,0,0,0,1.36,2.88,1.57,1.57,0,0,0-.63,2.07,1.53,1.53,0,0,0,2,.77,1.61,1.61,0,0,0-.66,2.1,1.55,1.55,0,0,0,2,.77,1.62,1.62,0,0,0-.67,2.1,1.57,1.57,0,0,0,1.43.9,1.63,1.63,0,0,0,.41-.1,1.13,1.13,0,0,0,.32.06.77.77,0,0,1,.07.16,1.44,1.44,0,0,0-.45.29,1.61,1.61,0,0,0-.45,1.12,1.49,1.49,0,0,0,.45,1.12,1.47,1.47,0,0,0,1.13.48,1.58,1.58,0,0,0,1.11-.45,1.61,1.61,0,0,0,0-2.27,1.62,1.62,0,0,0-1.41-.4v0a1.57,1.57,0,0,0,1.31-1.81,1.59,1.59,0,0,0-1.64-1.37,1.59,1.59,0,0,0,1.3-1.7,1.62,1.62,0,0,0-1.59-1.46,1.59,1.59,0,0,0-.18-3.16,1.63,1.63,0,0,0,1.45-1.63,1.57,1.57,0,0,0-1.56-1.55v0a1.6,1.6,0,0,0,.2-3.18,1.61,1.61,0,0,0,1.58-1.47,1.58,1.58,0,0,0-1.39-1.69,1.6,1.6,0,0,0,.44-3.16,1.61,1.61,0,0,0,.48-3.16,1.56,1.56,0,0,0,1.8-1.21,1.61,1.61,0,0,0-1.08-1.89,1.57,1.57,0,0,0,1.84-1.15,1.62,1.62,0,0,0-1-1.91,1.58,1.58,0,0,0,1.86-1,1.6,1.6,0,0,0-.92-2,1.59,1.59,0,0,0,2-.9,1.66,1.66,0,0,0-.79-2,1.59,1.59,0,0,0,1.36-2.87,1.58,1.58,0,0,0,2-.7,1.63,1.63,0,0,0-.53-2.11,1.59,1.59,0,0,0,1.67-2.68,1.58,1.58,0,0,0,2.09-.45,1.6,1.6,0,0,0-.16-2,1.58,1.58,0,0,0,2.31-2.07,1.57,1.57,0,0,0,2,.35,1.63,1.63,0,0,0,.76-1.88,1.57,1.57,0,0,0,3-.86,1.62,1.62,0,0,0,1.68,1.18,1.59,1.59,0,0,0,1.45-1.54,1.57,1.57,0,0,0,3.13.07,1.63,1.63,0,0,0,1.38,1.66,1.59,1.59,0,0,0,1.74-1.25,1.58,1.58,0,0,0,3.1.54,1.61,1.61,0,0,0,1.2,1.82,1.56,1.56,0,0,0,1.86-1.11,3.66,3.66,0,0,1,4.24,2.65,1.61,1.61,0,0,0,1.9-1.09,1.58,1.58,0,0,0,3.06.8,1.61,1.61,0,0,0,1.17,1.88,1.57,1.57,0,0,0,1.89-1.18s0,0,0,0h0s0,0,0,0a1.59,1.59,0,0,0,3.1.7,1.58,1.58,0,0,0,3.1.58,1.56,1.56,0,0,0,1.38,1.72,1.59,1.59,0,0,0,1.74-1.34,1.61,1.61,0,0,0,1.52,1.63,1.59,1.59,0,0,0,1.64-1.53,1.62,1.62,0,0,0,1.58,1.53h.06a1.7,1.7,0,0,1,3.35-.39,1.55,1.55,0,0,0,1.3-1.78,1.61,1.61,0,0,0,2,1,1.65,1.65,0,0,0,1-2,1.55,1.55,0,0,0,2.12.67,1.6,1.6,0,0,0,.69-2.13,1.57,1.57,0,0,0,2.21.31,1.61,1.61,0,0,0,.32-2.22,1.55,1.55,0,0,0,2.21-.07,1.59,1.59,0,0,0,0-2.24,1.57,1.57,0,0,0,2.21-.34,1.61,1.61,0,0,0-.35-2.24l-.06,0a.47.47,0,0,1,.06-.09,1.48,1.48,0,0,0,2-.2,1.63,1.63,0,0,0,.38-.71l.05,0a1.55,1.55,0,0,0,2.79,1.33,1.67,1.67,0,0,0,.7,1.92,1.58,1.58,0,0,0,2-.29,1.63,1.63,0,0,0,.34,2,1.57,1.57,0,0,0,2,0,1.63,1.63,0,0,0,0,2.07,1.56,1.56,0,0,0,2,.32,1.6,1.6,0,0,0,1.73,2.65,1.59,1.59,0,0,0,1.42,2.81,1.56,1.56,0,0,0-.69,2,1.58,1.58,0,0,0,1.87,1,1.64,1.64,0,0,0-.86,1.92,1.61,1.61,0,0,0,1.84,1.08,1.61,1.61,0,0,0,.75,3.1,1.58,1.58,0,0,0-1.07,1.82,1.56,1.56,0,0,0,1.7,1.28,1.6,1.6,0,0,0,.48,3.15,1.58,1.58,0,0,0,.37,3.13,1.61,1.61,0,0,0,.26,3.19,1.59,1.59,0,0,0,.13,3.16,1.61,1.61,0,0,0,.06,3.19,1.59,1.59,0,0,0,0,3.16,1.65,1.65,0,0,0-1.49,1.57,1.61,1.61,0,0,0,1.17,1.59.74.74,0,0,0-.16.1,1.56,1.56,0,0,0-1.13,1.43,1.46,1.46,0,0,0,.85,1.5,1.71,1.71,0,0,0-.94,1.06,2,2,0,0,0-.16.57,1.58,1.58,0,0,0,3.09.57,1.43,1.43,0,0,0,.15-.44,1.65,1.65,0,0,0-.84-1.69,1.51,1.51,0,0,0,.31-.16,1.61,1.61,0,0,0,1.1-1.18,1.59,1.59,0,0,0-1-1.82,1.65,1.65,0,0,0,1.75-1.12h0a1.56,1.56,0,0,0-.72-1.88,1.59,1.59,0,0,0,1.29-2.84,1.6,1.6,0,0,0,2-.64,1.63,1.63,0,0,0-.41-2.1,1.63,1.63,0,0,0,2.06-.74,1.61,1.61,0,0,0-.64-2.1,1.6,1.6,0,0,0,1.9-1.13,1.58,1.58,0,0,0-1-1.94,1.58,1.58,0,0,0,1.7-1.37,1.61,1.61,0,0,0-1.22-1.79A1.54,1.54,0,0,0,378,220,1.57,1.57,0,0,0,376.67,218.34Z"/><path class="cls-30" d="M258,371.21a9.72,9.72,0,0,0,1,1.49H381.64a13.54,13.54,0,0,0,1.12-1.71c1.86-3.52-9.48-14.3-8.16-22,2.91-16.88,13.09-25.67,13.09-25.67a164.83,164.83,0,0,0-28.88-6.67c-4.42,16-28.38,28.8-38.22,28.8s-26.81-9.57-38.21-28.8a164.55,164.55,0,0,0-28.88,6.67s7.4,8.62,11.59,25.67C267.19,357.57,256.12,367.69,258,371.21Z"/><path class="cls-30" d="M258,371.21a9.72,9.72,0,0,0,1,1.49h63.52v-.27c-28.31-14-36.17-49.16-40.09-55.78a164.55,164.55,0,0,0-28.88,6.67s7.4,8.62,11.59,25.67C267.19,357.57,256.12,367.69,258,371.21Z"/><path class="cls-30" d="M381.64,372.7a13.54,13.54,0,0,0,1.12-1.71c1.86-3.52-9.48-14.3-8.16-22,2.91-16.88,13.09-25.67,13.09-25.67a164.83,164.83,0,0,0-28.88-6.67c-1.78,6.45-11.72,43.25-36.34,55.78v.27Z"/><path class="cls-30" d="M351,350.62l10.46-3.08,12.44-29.15a36.23,36.23,0,0,0-22.54-2.55c3.45,7.3-4.31,44.06-28.93,56.59l32.14-16Z"/><path class="cls-30" d="M293.91,350.62l-10.46-3.08L271,318.39a40.72,40.72,0,0,1,22.37-2.83c-3.45,7.3,4.47,44.34,29.09,56.87l-32.13-16Z"/></g></g></g></svg>